<?xml version="1.0" encoding="UTF-8" standalone="no"?>
<!-- Created with Inkscape (http://www.inkscape.org/) -->

<svg
   version="1.1"
   id="svg2"
   width="458.23999"
   height="189.44"
   viewBox="0 0 458.23999 189.44"
   sodipodi:docname="STAPLE_alpha_Logo.svg"
   xml:space="preserve"
   inkscape:version="1.2.2 (b0a8486541, 2022-12-01)"
   xmlns:inkscape="http://www.inkscape.org/namespaces/inkscape"
   xmlns:sodipodi="http://sodipodi.sourceforge.net/DTD/sodipodi-0.dtd"
   xmlns="http://www.w3.org/2000/svg"
   xmlns:svg="http://www.w3.org/2000/svg"
   xmlns:rdf="http://www.w3.org/1999/02/22-rdf-syntax-ns#"
   xmlns:cc="http://creativecommons.org/ns#"
   xmlns:dc="http://purl.org/dc/elements/1.1/"><title
     id="title2654">STAPLE Logo alpha</title><defs
     id="defs6"><filter
       style="color-interpolation-filters:sRGB;"
       inkscape:label="Channel Painting"
       id="filter518"
       x="0"
       y="0"
       width="1"
       height="1"><feColorMatrix
         values="1"
         type="saturate"
         result="colormatrix1"
         id="feColorMatrix502" /><feColorMatrix
         values="1 0 0 0 0 0 1 0 0 0 0 0 1 0 0 -1 0.5 0.5 1 0 "
         in="SourceGraphic"
         result="colormatrix2"
         id="feColorMatrix504" /><feFlood
         flood-color="rgb(247,0,255)"
         flood-opacity="1"
         result="flood"
         id="feFlood506" /><feComposite
         in2="colormatrix2"
         operator="out"
         result="composite1"
         id="feComposite508" /><feMerge
         result="merge"
         id="feMerge514"><feMergeNode
           in="colormatrix1"
           id="feMergeNode510" /><feMergeNode
           in="composite1"
           id="feMergeNode512" /></feMerge><feComposite
         in="merge"
         in2="SourceGraphic"
         operator="in"
         result="fbSourceGraphic"
         id="feComposite516" /><feColorMatrix
         result="fbSourceGraphicAlpha"
         in="fbSourceGraphic"
         values="0 0 0 -1 0 0 0 0 -1 0 0 0 0 -1 0 0 0 0 1 0"
         id="feColorMatrix646" /><feColorMatrix
         id="feColorMatrix648"
         values="1"
         type="saturate"
         result="colormatrix1"
         in="fbSourceGraphic" /><feColorMatrix
         id="feColorMatrix650"
         values="1 0 0 0 0 0 1 0 0 0 0 0 1 0 0 10 10 10 -10 0 "
         in="fbSourceGraphic"
         result="colormatrix2" /><feFlood
         id="feFlood652"
         flood-color="rgb(190,12,165)"
         flood-opacity="1"
         result="flood" /><feComposite
         in2="colormatrix2"
         id="feComposite654"
         operator="out"
         result="composite1" /><feMerge
         id="feMerge656"
         result="merge"><feMergeNode
           id="feMergeNode658"
           in="colormatrix1" /><feMergeNode
           id="feMergeNode660"
           in="composite1" /></feMerge><feComposite
         in2="fbSourceGraphic"
         id="feComposite662"
         in="merge"
         operator="in"
         result="composite2" /></filter></defs><sodipodi:namedview
     id="namedview4"
     pagecolor="#ffffff"
     bordercolor="#111111"
     borderopacity="1"
     inkscape:showpageshadow="0"
     inkscape:pageopacity="0"
     inkscape:pagecheckerboard="1"
     inkscape:deskcolor="#d1d1d1"
     showgrid="false"
     inkscape:zoom="3"
     inkscape:cx="213.33333"
     inkscape:cy="108.66667"
     inkscape:window-width="1866"
     inkscape:window-height="1011"
     inkscape:window-x="0"
     inkscape:window-y="0"
     inkscape:window-maximized="1"
     inkscape:current-layer="g8" /><g
     inkscape:groupmode="layer"
     inkscape:label="Image"
     id="g8"
     style="display:inline"><path
       style="display:inline;fill:#000000;stroke-width:0.32"
       d="m 256.31756,132.95706 c -0.31211,-0.37607 -0.29086,-0.5074 0.10684,-0.66001 0.96919,-0.37191 1.85998,-11.04401 1.00106,-11.99311 -0.52555,-0.58072 -0.31907,-0.94394 0.53661,-0.94394 1.11567,0 1.25146,11.28589 0.1571,13.05662 -0.47088,0.76189 -1.3892,1.03736 -1.80161,0.54044 z"
       id="path2528"
       inkscape:label="staple_right" /><path
       style="display:inline;fill:#000000;stroke-width:0.32"
       d="m 156.05611,139.94944 c -0.11581,-0.1158 -0.0537,-0.39959 0.13807,-0.63063 0.73346,-0.88376 -0.62802,-11.51839 -1.51836,-11.86004 -0.75731,-0.29061 -0.48811,-1.05877 0.37104,-1.05877 1.47566,0 3.58916,11.83889 2.37473,13.30218 -0.40288,0.48544 -1.01624,0.5965 -1.36548,0.24726 z"
       id="path2524"
       inkscape:label="staple_left" /><path
       id="path2518"
       style="display:inline;fill:#000000;stroke-width:0.32"
       d="m 282.71999,101.14306 c -4.0264,-0.97067 -8.60164,-6.386078 -6.68858,-7.916849 1.32563,-1.060739 1.68854,-0.957555 3.60119,1.023917 3.91099,4.051722 6.95067,4.328291 11.85484,1.078624 3.35566,-2.223578 6.60597,-0.931712 3.90291,1.551248 -3.90103,3.58338 -8.73839,5.21095 -12.67036,4.26306 z M 293.1096,83.92 c -2.00979,-2.538032 1.43993,-9.634054 4.33084,-8.90848 3.3644,0.844406 0.99135,9.78848 -2.59709,9.78848 -0.74891,0 -1.23045,-0.244419 -1.73375,-0.88 z m -14.45701,-1.698582 c -2.12442,-1.238474 -0.7297,-8.069465 1.96971,-9.187596 2.90172,-1.20193 4.59867,2.19118 2.80786,6.102828 -1.31212,2.866038 -3.13443,4.042668 -4.77757,3.084768 z"
       inkscape:label="face" /><path
       style="display:inline;fill:#000000;stroke-width:0.32"
       d="M 54.056398,180.95225 C 45.602433,144.30942 38.964997,113.93563 30.051451,76.336333 c -0.78388,-3.209491 -0.944142,-3.055091 4.668548,-4.497776 2.464,-0.633347 24.208,-6.190279 48.319999,-12.348743 24.112002,-6.15846 46.633472,-11.922294 50.047722,-12.808515 2.26001,-0.127219 5.17219,-2.646824 6.96079,-0.858246 0.56492,0.564925 0.96773,1.728752 1.61227,4.658342 0.47257,2.147901 0.89063,3.872275 0.92903,3.831939 0.1199,-0.125936 -0.47795,-15.353849 -0.66387,-16.909798 -0.2267,-1.897088 0.0128,-2.070477 3.19406,-2.312502 C 189.52987,31.712367 254.91443,26.88 255.52383,26.88 c 1.49922,0 0.69006,0.961536 1.1111,10.88 0.47876,11.278234 0.73927,13.400774 1.08004,8.8 0.36333,-4.206654 0.98508,-8.747789 1.33838,-12.48 0.6314,-6.715425 -0.61404,-6.082107 10.42576,-5.301593 20.09334,1.463239 88.33927,5.888796 100.38422,7.001269 3.04414,0.5594 4.30557,0.498453 3.8016,6.922413 -1.40386,17.894745 -2.81067,24.990394 -4.76193,46.324887 0.12262,0.124835 15.7736,6.85415 34.77997,14.954034 19.00636,8.09988 35.42102,15.15912 36.47702,15.68719 6.38758,3.19427 8.45334,8.35595 5.78486,14.4545 -2.59263,6.4735 -11.97462,30.36446 -16.2752,39.91332 -2.77998,6.17259 -5.06198,6.95006 -10.8554,5.12823 -3.58775,-1.26828 -91.80916,-25.34564 -136.09426,-36.6008 -0.70665,-0.34038 -17.81208,-1.29406 -29.23625,-1.92272 -5.70378,-0.0108 -4.10904,0.15646 -4.89387,-1.90078 -28.50501,3.14674 -53.02436,4.98798 -81.86987,7.37545 -3.59234,0.28336 -3.22036,0.20416 -3.06659,2.28121 0.8316,2.87063 2.59842,4.27988 -1.09341,5.43738 -26.33462,7.20667 -77.688695,21.59476 -104.567809,28.62762 -1.985551,0.51952 -2.999632,1.38518 -3.935793,-1.50936 z M 162.03946,151.68 c -0.19745,-1.76584 -0.55175,-3.08576 -0.96256,-4.96 -12.51124,1.04321 -13.61791,2.04512 -13.26625,-2.14973 -2.16175,-26.69235 -2.7535,-46.909137 -4.38276,-76.25025 C 141.8149,61.463788 140.4419,54.536776 138.6982,47.716807 94.569588,58.665915 79.262986,62.870715 34.399999,74.232612 c -1.765977,0.44551 -1.93757,1.989007 -1.896495,2.436092 C 41.453236,115.53124 45.299802,134.87849 56.543877,180.16 93.761166,170.59614 122.60721,162.23102 162.03946,151.68 Z m 278.17426,-16.08201 c 2.73334,-6.15573 1.61715,-9.60543 -3.9104,-12.08546 -54.10951,-22.70958 -107.55897,-45.001767 -159.83457,-67.586376 -4.12498,0 -4.45878,0.524515 -12.7749,20.073846 -3.74345,8.8 -7.5328,17.548634 -8.42079,19.441411 -1.93397,4.122362 -1.87302,4.559949 0.76428,5.487069 0.94746,0.33307 17.56265,7.37407 36.92265,15.64667 19.36,8.2726 41.248,17.6244 48.64,20.78178 7.392,3.15737 14.69744,6.22603 16.23434,6.81924 1.53689,0.59321 3.55289,1.44685 4.48,1.89699 2.53107,1.22891 61.47574,26.38131 61.84566,26.39029 5.9365,-12.53052 10.06008,-23.28457 16.05373,-36.86546 z m -78.33392,15.92334 -13.00019,-5.57409 -8.91981,-0.48851 c -4.90589,-0.26868 -9.63981,-0.55228 -10.51981,-0.63022 -1.04198,-0.0923 -1.36806,-0.049 -0.93497,0.12423 2.01203,0.80466 44.67948,12.07583 45.89497,12.12377 0.264,0.0104 -5.37008,-2.48942 -12.52019,-5.55518 z M 249.13383,136.49474 c 1.63056,-10.89224 1.82394,-19.24432 3.18418,-31.05474 -0.84653,-1.87733 -6.88489,-1.76825 -5.05437,-5.33484 2.40928,-5.533641 4.47869,-10.602224 6.66133,-15.62516 0.22508,-0.442019 0.73519,-4.522995 1.13998,-9.12 1.27147,-9.03619 0.27562,-18.12686 -0.1469,-27.194061 -0.48374,-10.380736 -0.91921,-18.913761 -0.96773,-18.962281 -38.57322,2.816933 -75.32939,5.699207 -109.69698,8.305564 1.25744,24.456801 2.44912,49.752896 3.57984,70.490778 1.05962,19.36 2.31413,36.78675 2.3142,37.35875 34.48799,-2.07754 49.63626,-4.46097 98.98645,-8.86401 z m 84.14616,2.84571 c -31.03017,-13.36469 -46.94458,-20.04036 -47.17129,-19.78709 -1.6024,2.60984 -2.21419,7.21897 -4.62789,8.4285 -1.06669,-0.0284 -23.76988,-9.24809 -24.31675,-10.59233 0.4912,-3.45105 1.8065,-5.31493 3.15593,-9.01939 -1.91427,-1.203 -3.5724,-1.7621 -5.80005,-2.68935 -0.64238,9.33617 -1.7493,24.56352 -2.32392,32.55921 0.94463,0 68.37095,3.82746 81.24397,4.61182 3.784,0.23057 7.384,0.43413 8,0.45237 0.79847,0.0237 -1.54416,-1.1143 -8.16,-3.96374 z m -51.13416,-21.78128 c -0.44839,-0.44839 -18.00058,-7.74856 -18.17546,-7.5594 -0.33871,0.36639 -2.63283,5.84828 -2.49296,5.95704 0.55116,0.42858 17.86538,7.46507 17.86538,7.46507 1.40919,-1.81044 2.06948,-3.6297 2.80304,-5.86271 z m 89.16464,-79.365026 c -37.81434,-2.45065 -68.59292,-5.333618 -108.90631,-7.590859 -1.7791,-0.144929 -1.1839,3.839887 -1.3235,5.23671 -2.12638,21.276733 -2.84067,29.69072 -2.84067,33.46169 0.61056,2.341212 -0.78045,4.392499 -0.90257,6.073955 0.0926,1.123376 0.42904,0.480345 3.44593,-6.585354 6.19198,-14.501869 6.8074,-15.517341 10.50843,-17.339353 C 273.13118,50.545402 273.75952,50.4 275.83326,50.4 h 2.40673 l 20.48,8.76728 c 24.57712,10.521206 21.06471,10.536469 24.18609,6.858307 3.98627,-4.696591 7.5274,-9.528284 10.8573,-14.105587 1.73316,-2.453693 2.27719,-1.308205 2.74327,5.776054 0.36457,2.040024 0.23888,2.755532 -1.04071,4.199703 -1.75057,2.968392 -5.94363,6.675983 -7.34202,9.823279 0.68396,0.425593 37.74119,16.227626 38.1194,16.256382 2.04442,-17.594029 3.66885,-30.663735 5.06715,-49.781274 z"
       id="path340"
       sodipodi:nodetypes="ccssccssscssccccscsscscccccccscccccccccccccsssssssccscsscsscccccccccccsccccccssscsscccccccssscsccccccc"
       inkscape:label="paper_and_stapler" /><path
       id="path722"
       style="display:inline;fill:#000000;stroke-width:0.32"
       d="m 163.93112,113.86626 c -9.22764,-4.86452 -9.97119,-13.0655 -9.81835,-20.996405 0.8562,-10.390719 15.68314,-24.886392 26.52721,-24.154617 5.55976,0.375171 12.16593,5.313787 14.88573,11.128184 3.75448,8.026385 3.49988,7.796289 5.54196,5.007921 5.36716,-6.420127 5.43733,-6.333559 9.99566,-12.107271 3.6129,-4.942887 7.43691,-10.043641 11.03244,-15.153936 1.31178,-2.533547 2.1682,-2.114082 2.68009,1.312684 0.89846,4.299821 1.7436,6.091209 0.40871,7.534527 -4.16624,5.980127 -6.01801,8.960879 -9.62026,13.341861 -2.95536,3.590153 -7.97046,9.421494 -11.5619,13.012973 -2.03278,2.032719 -2.00129,1.32706 2.18612,8.975849 5.69563,10.4037 15.00115,12.57106 15.54502,3.60283 0.15367,-2.53544 1.86544,-3.52775 2.13161,-1.23573 0.9305,8.01274 -7.53654,13.53748 -14.35602,9.36725 -3.18788,-1.94945 -8.68254,-8.54583 -10.57109,-12.69066 -0.56065,-1.239877 -0.41222,-1.557204 -1.39213,-0.55126 -0.79794,0.81912 -4.15987,3.41295 -10.04225,7.74785 -9.29709,6.8513 -15.76885,8.45958 -23.5726,5.85803 z m 8.34503,-2.46385 c 6.57865,-1.52656 12.94369,-8.26367 20.119,-15.635959 2.09971,-3.114138 2.22828,-3.271495 1.30252,-5.455927 -1.29639,-5.716618 -4.13948,-9.2548 -7.21533,-13.235329 -4.96093,-6.393277 -11.02305,-8.501726 -21.19121,0.531854 -10.2282,9.086855 -12.0122,19.886184 -4.96678,30.066321 2.08835,3.01757 7.60935,4.73664 11.95179,3.72904 z m 55.28894,10.12527 c 2.43801,1.18002 4.25903,0.52333 4.48992,2.34116 l 0.35436,4.19867 c 6.61824,1.69748 8.75682,-11.60226 4.10156,-10.89626 -5.12618,1.40776 -9.17483,-4.45573 -8.89126,-7.43315 1.442,-11.500797 10.56829,-8.93658 12.48284,-9.10024 -0.13452,-1.669045 -0.43205,-3.35786 0.0575,-3.35786 1.39312,0.676805 3.3842,1.943583 4.24806,2.481533 0.32866,5.497547 0.0192,5.898507 0.52619,8.960047 -1.18768,1.37112 -2.92188,-0.25062 -4.54415,-0.59958 -0.0512,-2.01927 0.0347,-1.72715 0.003,-3.7465 -0.0269,-1.71438 -4.28153,-1.18939 -5.27065,0.84399 -1.58234,3.57145 -0.52387,9.29427 1.63801,8.85623 7.02295,-1.42296 11.89379,3.80224 9.93369,10.65637 -1.34955,4.71914 -10.79377,8.72796 -13.893,6.46731 -1.33431,-0.97328 -0.0159,1.7898 -0.11241,3.97574 -0.33794,1.18898 -1.88616,-0.62852 -4.44924,-1.21869 -0.33742,-3.99066 -0.86574,-7.82818 -0.67442,-12.42877 z"
       inkscape:label="alpha_S_right" /><path
       id="path1598"
       style="display:inline;fill:#000000;stroke-width:0.32"
       d="m 124.82618,141.02217 c 2.63006,0.64734 4.27477,-0.37357 4.87855,1.3565 l 1.21958,4.03325 c 6.82653,0.28437 6.15321,-13.16938 1.74647,-11.51093 -4.72147,2.4428 -9.90074,-2.4508 -10.24242,-5.42211 -0.98064,-11.54928 8.47933,-10.93856 10.31802,-11.49671 -0.47858,-1.6046 -1.12075,-3.19465 -0.6419,-3.29643 1.50341,0.37237 3.71434,1.1975 4.67117,1.54409 1.46449,5.30907 1.24516,5.7656 2.3776,8.65484 -0.87665,1.58808 -2.91015,0.36228 -4.56951,0.35831 -0.46992,-1.96451 -0.32512,-1.69663 -0.77601,-3.66527 -0.38275,-1.67131 -4.43525,-0.27321 -4.97999,1.92138 -0.80522,3.82239 1.41998,9.20009 3.44352,8.32215 6.57363,-2.85203 12.42442,1.24628 11.93221,8.35816 -0.3389,4.89661 -8.74326,10.78138 -12.24478,9.2145 -1.50751,-0.67459 0.35657,1.75399 0.71663,3.91225 -0.0833,1.23326 -1.97562,-0.22264 -4.60541,-0.26702 -1.15973,-3.8333 -2.47438,-7.47712 -3.24375,-12.01695 z m -66.106181,0.76497 c -9.87499,-3.36115 -11.892266,-11.34482 -12.981975,-19.20201 -0.77979,-10.39672 11.596925,-27.033383 22.421975,-28.007005 5.550012,-0.499175 12.847417,3.34519 16.443295,8.662535 4.963866,7.34024 4.676381,7.15281 6.257133,4.07932 4.29675,-7.18069 4.379579,-7.10617 7.978614,-13.521883 2.795189,-5.447217 5.774219,-11.083376 8.525979,-16.693217 0.89931,-2.707565 1.81083,-2.427232 2.85248,0.87727 1.56003,4.106326 2.675,5.743451 1.58232,7.377818 -3.17945,6.558253 -4.5421,9.791987 -7.41468,14.682552 -2.35734,4.00826 -6.398473,10.55235 -9.383914,14.66144 -1.689724,2.3257 -1.769021,1.62379 3.563373,8.52337 7.252981,9.38461 16.782981,10.06955 15.917231,1.12662 -0.24476,-2.52828 1.29061,-3.77609 1.91205,-1.55395 2.17251,7.76852 -5.32603,14.54977 -12.7139,11.49772 -3.45363,-1.42674 -9.912498,-7.08234 -12.426181,-10.88077 -0.747689,-1.13689 -0.650774,-1.47356 -1.461229,-0.32674 -0.659968,0.93389 -3.574745,4.02169 -8.706573,9.22342 -8.110879,8.22136 -14.25135,10.82226 -22.366018,9.47351 z m 7.856883,-3.739 c 6.258833,-2.5369 11.491609,-10.18678 17.425324,-18.59075 1.586688,-3.40427 1.689038,-3.5798 0.432987,-5.59252 -2.174713,-5.44343 -5.536289,-8.4933 -9.196947,-11.94365 -5.900014,-5.538513 -12.217291,-6.672682 -20.84715,3.84034 -8.680751,10.57501 -8.753385,21.52047 -0.20222,30.47312 2.534736,2.65374 8.256683,3.48801 12.388006,1.81346 z"
       inkscape:label="alpha_S_left" /></g><metadata
     id="metadata2652"><rdf:RDF><cc:Work
         rdf:about=""><dc:title>STAPLE Logo alpha</dc:title><dc:date>17 May 2025</dc:date><dc:creator><cc:Agent><dc:title>Judith Fronczek-Poncelet</dc:title></cc:Agent></dc:creator><dc:rights><cc:Agent><dc:title>Judith Fronczek-Poncelet</dc:title></cc:Agent></dc:rights><dc:subject><rdf:Bag><rdf:li>STAPLE parton-shower particle physics</rdf:li></rdf:Bag></dc:subject><dc:description>A stapler with a smiling face staples together paper squares with the inscription alpha S</dc:description><dc:contributor><cc:Agent><dc:title>Judith Fronczek-Poncelet
René Poncelet</dc:title></cc:Agent></dc:contributor><cc:license
           rdf:resource="http://creativecommons.org/licenses/by-nc-sa/4.0/" /></cc:Work><cc:License
         rdf:about="http://creativecommons.org/licenses/by-nc-sa/4.0/"><cc:permits
           rdf:resource="http://creativecommons.org/ns#Reproduction" /><cc:permits
           rdf:resource="http://creativecommons.org/ns#Distribution" /><cc:requires
           rdf:resource="http://creativecommons.org/ns#Notice" /><cc:requires
           rdf:resource="http://creativecommons.org/ns#Attribution" /><cc:prohibits
           rdf:resource="http://creativecommons.org/ns#CommercialUse" /><cc:permits
           rdf:resource="http://creativecommons.org/ns#DerivativeWorks" /><cc:requires
           rdf:resource="http://creativecommons.org/ns#ShareAlike" /></cc:License></rdf:RDF></metadata></svg>
